<?xml version="1.0" encoding="UTF-8"?>
<svg xmlns="http://www.w3.org/2000/svg" viewBox="0 0 30 20" width="900" height="600">
<rect width="30" height="20" fill="#de2910"/>
<g transform="translate(5,5)" fill="#ffde00">
<polygon points="0,-3 0.588,2.264 -1.951,-0.927 1.951,-0.927 -0.588,2.264" transform="scale(3)"/>
<polygon points="0,-3 0.588,2.264 -1.951,-0.927 1.951,-0.927 -0.588,2.264" transform="translate(5,-3) rotate(23.036)"/>
<polygon points="0,-3 0.588,2.264 -1.951,-0.927 1.951,-0.927 -0.588,2.264" transform="translate(7,0) rotate(45.868)"/>
<polygon points="0,-3 0.588,2.264 -1.951,-0.927 1.951,-0.927 -0.588,2.264" transform="translate(5,4) rotate(70.016)"/>
<polygon points="0,-3 0.588,2.264 -1.951,-0.927 1.951,-0.927 -0.588,2.264" transform="translate(0,7) rotate(93.260)"/>
</g>
</svg> 